HIERARCHY
ROOT hip
{
  OFFSET 0 0 0
  CHANNELS 6 Xposition Yposition Zposition Zrotation Yrotation Xrotation
  JOINT abdomen
  {
    OFFSET 0 20.6881 -0.73152
    CHANNELS 3 Zrotation Xrotation Yrotation
    JOINT chest
    {
      OFFSET 0 11.7043 -0.48768
      CHANNELS 3 Zrotation Xrotation Yrotation
      JOINT neck
      {
        OFFSET 0 22.1894 -2.19456
        CHANNELS 3 Zrotation Xrotation Yrotation
        JOINT head
        {
          OFFSET -0.24384 7.07133 1.2192
          CHANNELS 3 Zrotation Xrotation Yrotation
          JOINT leftEye
          {
            OFFSET 4.14528 8.04674 8.04672
            CHANNELS 3 Zrotation Xrotation Yrotation
            End Site
            {
              OFFSET 1 0 0
            }
          }
          JOINT rightEye
          {
            OFFSET -3.6576 8.04674 8.04672
            CHANNELS 3 Zrotation Xrotation Yrotation
            End Site
            {
              OFFSET 1 0 0
            }
          }
        }
      }
      JOINT rCollar
      {
        OFFSET -2.68224 19.2634 -4.8768
        CHANNELS 3 Zrotation Xrotation Yrotation
        JOINT rShldr
        {
          OFFSET -8.77824 -1.95073 1.46304
          CHANNELS 3 Zrotation Xrotation Yrotation
          JOINT rForeArm
          {
            OFFSET -28.1742 -1.7115 0.48768
            CHANNELS 3 Zrotation Xrotation Yrotation
            JOINT rHand
            {
              OFFSET -22.5879 0.773209 7.07136
              CHANNELS 3 Zrotation Xrotation Yrotation
              JOINT rThumb1
              {
                OFFSET -1.2192 -0.487915 3.41376
                CHANNELS 3 Zrotation Xrotation Yrotation
                JOINT rThumb2
                {
                  OFFSET -3.37035 -0.52449 3.41376
                  CHANNELS 3 Zrotation Xrotation Yrotation
                  End Site
                  {
                    OFFSET -1.78271 -1.18214 1.43049
                  }
                }
              }
              JOINT rIndex1
              {
                OFFSET -7.75947 0.938293 5.60832
                CHANNELS 3 Zrotation Xrotation Yrotation
                JOINT rIndex2
                {
                  OFFSET -2.54057 -0.884171 1.56538
                  CHANNELS 3 Zrotation Xrotation Yrotation
                  End Site
                  {
                    OFFSET -1.62519 -0.234802 1.16502
                  }
                }
              }
              JOINT rMid1
              {
                OFFSET -8.24714 1.18213 3.41376
                CHANNELS 3 Zrotation Xrotation Yrotation
                JOINT rMid2
                {
                  OFFSET -3.10165 -0.590103 1.0647
                  CHANNELS 3 Zrotation Xrotation Yrotation
                  End Site
                  {
                    OFFSET -2.48547 -0.328903 0.83742
                  }
                }
              }
              JOINT rRing1
              {
                OFFSET -8.82822 0.546677 1.51678
                CHANNELS 3 Zrotation Xrotation Yrotation
                JOINT rRing2
                {
                  OFFSET -2.60934 -0.819778 -0.0198488
                  CHANNELS 3 Zrotation Xrotation Yrotation
                  End Site
                  {
                    OFFSET -2.33842 -0.294052 0.168128
                  }
                }
              }
              JOINT rPinky1
              {
                OFFSET -8.27202 -0.0477905 -0.4584
                CHANNELS 3 Zrotation Xrotation Yrotation
                JOINT rPinky2
                {
                  OFFSET -1.82734 -0.647385 -0.700984
                  CHANNELS 3 Zrotation Xrotation Yrotation
                  End Site
                  {
                    OFFSET -1.69225 -0.51767 -0.607171
                  }
                }
              }
            }
          }
        }
      }
      JOINT lCollar
      {
        OFFSET 2.68224 19.2634 -4.8768
        CHANNELS 3 Zrotation Xrotation Yrotation
        JOINT lShldr
        {
          OFFSET 8.77824 -1.95073 1.46304
          CHANNELS 3 Zrotation Xrotation Yrotation
          JOINT lForeArm
          {
            OFFSET 28.1742 -1.7115 0.48768
            CHANNELS 3 Zrotation Xrotation Yrotation
            JOINT lHand
            {
              OFFSET 22.5879 0.773209 7.07136
              CHANNELS 3 Zrotation Xrotation Yrotation
              JOINT lThumb1
              {
                OFFSET 1.2192 -0.487915 3.41376
                CHANNELS 3 Zrotation Xrotation Yrotation
                JOINT lThumb2
                {
                  OFFSET 3.37035 -0.52449 3.41376
                  CHANNELS 3 Zrotation Xrotation Yrotation
                  End Site
                  {
                    OFFSET 1.78271 -1.18214 1.43049
                  }
                }
              }
              JOINT lIndex1
              {
                OFFSET 7.75947 0.938293 5.60832
                CHANNELS 3 Zrotation Xrotation Yrotation
                JOINT lIndex2
                {
                  OFFSET 2.54057 -0.884171 1.56538
                  CHANNELS 3 Zrotation Xrotation Yrotation
                  End Site
                  {
                    OFFSET 1.62519 -0.234802 1.16502
                  }
                }
              }
              JOINT lMid1
              {
                OFFSET 8.24714 1.18213 3.41376
                CHANNELS 3 Zrotation Xrotation Yrotation
                JOINT lMid2
                {
                  OFFSET 3.10165 -0.590103 1.0647
                  CHANNELS 3 Zrotation Xrotation Yrotation
                  End Site
                  {
                    OFFSET 2.48547 -0.328903 0.83742
                  }
                }
              }
              JOINT lRing1
              {
                OFFSET 8.82822 0.546677 1.51678
                CHANNELS 3 Zrotation Xrotation Yrotation
                JOINT lRing2
                {
                  OFFSET 2.60934 -0.819778 -0.0198488
                  CHANNELS 3 Zrotation Xrotation Yrotation
                  End Site
                  {
                    OFFSET 2.33842 -0.294052 0.168128
                  }
                }
              }
              JOINT lPinky1
              {
                OFFSET 8.27202 -0.0477905 -0.4584
                CHANNELS 3 Zrotation Xrotation Yrotation
                JOINT lPinky2
                {
                  OFFSET 1.82734 -0.647385 -0.700984
                  CHANNELS 3 Zrotation Xrotation Yrotation
                  End Site
                  {
                    OFFSET 1.69225 -0.51767 -0.607171
                  }
                }
              }
            }
          }
        }
      }
    }
  }
  JOINT rButtock
  {
    OFFSET -8.77824 4.35084 1.2192
    CHANNELS 3 Zrotation Xrotation Yrotation
    JOINT rThigh
    {
      OFFSET 0 -1.70687 -2.19456
      CHANNELS 3 Zrotation Xrotation Yrotation
      JOINT rShin
      {
        OFFSET 0 -36.8199 0.73152
        CHANNELS 3 Zrotation Xrotation Yrotation
        JOINT rFoot
        {
          OFFSET 0.73152 -45.1104 -5.12064
          CHANNELS 3 Zrotation Xrotation Yrotation
          End Site
          {
            OFFSET -1.1221 -3.69964 12.103
          }
        }
      }
    }
  }
  JOINT lButtock
  {
    OFFSET 8.77824 4.35084 1.2192
    CHANNELS 3 Zrotation Xrotation Yrotation
    JOINT lThigh
    {
      OFFSET 0 -1.70687 -2.19456
      CHANNELS 3 Zrotation Xrotation Yrotation
      JOINT lShin
      {
        OFFSET 0 -36.8199 0.73152
        CHANNELS 3 Zrotation Xrotation Yrotation
        JOINT lFoot
        {
          OFFSET -0.73152 -45.1104 -5.12064
          CHANNELS 3 Zrotation Xrotation Yrotation
          End Site
          {
            OFFSET 1.1221 -3.69964 12.103
          }
        }
      }
    }
  }
}
MOTION
Frames:	5
Frame Time:	0.03333
0.0 0.0 0.0 0.0 0.0 0.0 0.0 0.0 0.0 0.0 0.0 0.0 0.0 0.0 0.0 0.0 0.0 0.0 0.0 0.0 0.0 0.0 0.0 0.0 0.0 0.0 0.0 0.0 0.0 0.0 0.0 0.0 0.0 0.0 0.0 0.0 0.0 0.0 0.0 0.0 0.0 0.0 0.0 0.0 0.0 0.0 0.0 0.0 0.0 0.0 0.0 0.0 0.0 0.0 0.0 0.0 0.0 0.0 0.0 0.0 0.0 0.0 0.0 0.0 0.0 0.0 0.0 0.0 0.0 0.0 0.0 0.0 0.0 0.0 0.0 0.0 0.0 0.0 0.0 0.0 0.0 0.0 0.0 0.0 0.0 0.0 0.0 0.0 0.0 0.0 0.0 0.0 0.0 0.0 0.0 0.0 0.0 0.0 0.0 0.0 0.0 0.0 0.0 0.0 0.0 0.0 0.0 0.0 0.0 0.0 0.0 0.0 0.0 0.0 0.0 0.0 0.0 0.0 0.0 0.0 0.0 0.0 0.0 0.0 0.0 0.0 0.0 0.0 0.0 0.0 0.0 0.0
-0.0526 68.0093 0.0409 -0.051062 75.836413 -0.767795 -1.900962 -1.524851 124.373763 11.761381 -4.083251 -95.363932 -11.8405 -12.57739 -74.562366 36.040535 -16.211379 50.783493 169.230452 6.549731 -62.51893 134.283956 -8.541934 20.092147 67.819486 40.183061 10.082146 -179.052809 -45.659488 163.096735 -147.974746 -82.717081 5.181746 5.099139 -18.543379 0.137429 174.293219 -14.816268 114.786043 -134.651256 56.706707 89.524408 -148.662085 -14.048358 140.857552 81.101136 -77.78391 0.685235 30.299912 -59.899075 8.46235 -19.390878 -7.102243 19.26834 -89.29395 1.627391 -7.981522 140.754494 -24.2804 -60.62745 43.813849 2.807505 -92.248362 -175.964949 44.487888 -86.93645 -73.681156 11.446528 -8.842628 160.699453 10.996958 -170.761935 58.903048 83.48174 135.325809 -166.180252 -21.547169 -139.94565 5.586258 -5.717031 35.943439 120.096384 67.052216 87.85547 -152.216112 48.622168 -40.630061 100.832256 46.905915 -26.443619 157.339838 44.118155 -112.409331 -15.239381 -7.58939 -33.405195 -5.442836 30.267953 109.511376 119.756377 -26.280415 90.49112 -69.076333 -76.480709 97.820451 43.830264 -46.652794 -0.93358 2.108283 -50.317875 -0.0 -3.497274 51.522749 0.0 -6.516769 1.3003 -89.927646 78.080018 27.298198 -84.739138 1.953858 49.754087 -180.0 3.090104 49.925852 -2.326007 -3.729806 -7.096815 -36.673976 -39.97253 77.137734 37.391298
-1.0744 70.7783 -0.9254 -0.759673 26.64823 8.466504 -1.838648 -5.744504 -0.260349 -1.335215 -13.280508 5.710588 -5.818591 6.206458 -53.100133 14.98026 2.312589 43.466538 10.518734 9.47941 84.019742 5.696615 2.885829 53.704029 8.022846 -63.105859 -3.62788 -118.373653 47.289399 118.313923 -64.974223 -82.701445 -20.197893 5.44275 -5.196837 -14.088902 -12.783763 -7.079167 -4.840692 83.000118 -11.947764 20.710758 -174.337051 -41.654391 123.439073 -170.427964 -52.227694 92.304698 -25.290823 54.376561 28.109854 173.005616 -62.767067 176.479563 130.69644 -61.302701 133.754166 -52.027286 2.141175 5.457247 -56.0894 16.725474 41.293404 54.153353 -5.258685 -54.955739 2.992062 12.186087 1.554047 -3.791165 -66.01539 -6.7283 -151.342431 -43.040896 -70.849581 174.52715 16.274883 -135.196016 94.978802 29.614053 -52.841297 179.644881 -35.902244 -87.505538 30.757231 36.392225 -51.784445 -85.834126 86.950861 70.539577 164.3369 -4.89922 -151.339105 5.403123 31.507979 5.681777 120.947259 48.268212 -129.723304 148.737183 -4.34095 -166.796832 154.789693 48.547931 126.464039 129.408697 17.880437 101.467548 -24.37457 8.6674 -25.8632 31.430376 -45.492962 146.687367 60.020146 -55.577002 -101.390584 69.334195 -38.905181 3.462165 -11.324694 14.975049 -3.112903 25.973391 -48.411019 20.365467 -33.295174 62.409878 -64.189744 95.337611 -59.61533 173.143662
-1.243 71.8489 -0.1724 3.465662 16.303874 9.746231 -1.395035 -0.537776 -0.071232 -3.734583 -16.59653 6.614102 -16.545044 19.68658 -109.587268 30.49051 25.417123 90.68163 -23.903591 -0.4455 2.104391 -165.497678 -2.800906 -21.752641 -147.655401 39.83283 147.301824 68.207868 39.254932 -48.338609 -154.896762 61.950068 -149.722756 -1.742388 -13.669172 2.557002 -179.686339 -2.440049 81.700744 -97.44491 -10.065789 34.575627 -92.092807 61.204449 20.373514 -55.780032 -34.812761 19.031207 -12.233829 58.74016 14.817645 -6.84556 -16.603954 7.977281 -15.453663 1.096621 -8.395912 77.230616 -16.683407 11.932083 -9.356907 47.970831 -4.087979 -57.612512 17.539549 126.089246 153.715062 -4.144663 -161.381582 129.704882 22.060325 -151.782017 0.75456 13.981562 -32.876015 -4.640385 9.711682 2.18373 -131.909296 -44.705072 -43.627186 -143.862397 -3.485909 -64.312345 -28.775342 -33.761563 -21.891275 103.945701 -65.806181 117.644028 29.484871 53.492239 -28.536521 8.512681 -6.601074 5.318078 42.351633 8.992144 17.918367 -36.54318 9.908648 -32.464342 108.229398 57.722927 -105.755821 133.267144 -6.934502 171.600491 149.844698 79.312513 30.592674 163.631212 33.483474 68.271389 69.380989 4.850527 2.151203 -146.051436 31.091281 76.406418 -110.928263 65.932266 -39.284789 135.316976 37.708568 -31.502505 -56.33592 11.522232 -67.218532 -142.351786 18.403853 -164.988071
-3.1988999999999996 70.3892 0.6274 2.317741 23.67964 9.247916 6.380495 -4.170333 84.890444 -17.774208 8.144988 -73.374059 -13.999574 31.830413 -90.445487 59.437745 -1.644765 58.420957 -59.011466 -13.656862 23.895222 -174.733982 -1.258433 -26.862898 -146.156759 39.201979 148.002301 43.552666 1.417691 -38.682047 3.791036 -30.257113 -106.261192 -165.7326 21.71336 146.190118 10.032071 -29.541324 -15.428235 -27.086812 34.975124 -48.154451 -166.242809 -9.850216 136.245983 -125.85706 80.852423 85.607856 -44.042326 50.859745 -8.753842 19.675137 15.628235 53.537725 124.636193 24.126005 -126.695611 -109.033978 26.781155 -4.803509 -66.944184 -12.564797 -35.287681 -107.135556 55.494657 -114.018814 -14.33908 -17.153434 -4.761629 28.372583 20.796937 -4.085211 -172.902521 6.836992 -126.76225 -174.546112 -0.439562 -153.62384 -168.119529 -33.01876 -91.449359 -117.943081 -61.902033 -82.645755 166.224867 -26.262052 -131.748925 174.350504 -51.130887 -85.729457 14.193812 61.333683 -20.526155 10.608234 5.087418 40.341137 -49.783072 79.194461 49.707474 -99.085235 -53.452829 -98.82113 105.044014 -58.522726 97.933022 14.120139 -65.551197 15.301593 47.736947 27.534166 52.113861 -101.443115 9.209779 -134.266887 -60.770014 13.758304 -81.636383 90.382429 -9.441243 -170.1882 -6.274382 -3.956762 -3.03127 9.320659 -19.904455 58.079254 52.520411 21.010732 69.542875 -33.274905 -15.72884 -131.613897
